<svg width="110" height="110" viewBox="0 0 110 110" fill="none" xmlns="http://www.w3.org/2000/svg">
<rect width="110" height="110" rx="3" fill="#F0F0F0"/>
<path d="M73 41V61H70C69.4477 61 69 61.4477 69 62C69 62.5523 69.4477 63 70 63H73C74.1046 63 75 62.1046 75 61V41C75 39.8954 74.1046 39 73 39L45 39C43.8954 39 43 39.8954 43 41V44C43 44.5523 43.4477 45 44 45C44.5523 45 45 44.5523 45 44V41L73 41Z" fill="#C8C8C8"/>
<path fill-rule="evenodd" clip-rule="evenodd" d="M57 61C59.2091 61 61 59.2091 61 57C61 54.7909 59.2091 53 57 53C54.7909 53 53 54.7909 53 57C53 59.2091 54.7909 61 57 61ZM57 59C58.1046 59 59 58.1046 59 57C59 55.8954 58.1046 55 57 55C55.8954 55 55 55.8954 55 57C55 58.1046 55.8954 59 57 59Z" fill="#C8C8C8"/>
<path fill-rule="evenodd" clip-rule="evenodd" d="M35 49C35 47.8954 35.8954 47 37 47H65C66.1046 47 67 47.8954 67 49V69C67 70.1046 66.1046 71 65 71H37C35.8954 71 35 70.1046 35 69V49ZM37 49H65V69H57.393L47.9179 60.2017C45.1588 57.6396 40.8673 57.7191 38.205 60.3815L37 61.5863V49ZM37 64.4149V69H54.4538L46.557 61.6672C44.5862 59.8372 41.5209 59.894 39.6192 61.7957L37 64.4149Z" fill="#C8C8C8"/>
</svg>
