<svg width="15" height="14" viewBox="0 0 15 14" fill="none" xmlns="http://www.w3.org/2000/svg">
<path fill-rule="evenodd" clip-rule="evenodd" d="M7 1C3.96243 1 1.5 3.46243 1.5 6.5C1.5 9.53757 3.96243 12 7 12C10.0376 12 12.5 9.53757 12.5 6.5C12.5 3.46243 10.0376 1 7 1ZM0.5 6.5C0.5 2.91015 3.41015 0 7 0C10.5899 0 13.5 2.91015 13.5 6.5C13.5 8.03418 12.9685 9.44422 12.0795 10.556L14.3186 12.4076C14.5314 12.5835 14.5613 12.8987 14.3853 13.1115C14.2093 13.3243 13.8942 13.3542 13.6814 13.1782L11.3958 11.2882C10.2386 12.3511 8.6951 13 7 13C3.41015 13 0.5 10.0899 0.5 6.5Z" fill="#9B9FA2"/>
</svg>
